<?xml version="1.0" standalone="no"?><!DOCTYPE svg PUBLIC "-//W3C//DTD SVG 1.1//EN" "http://www.w3.org/Graphics/SVG/1.1/DTD/svg11.dtd"><svg t="1528875562341" class="icon" style="" viewBox="0 0 1024 1024" version="1.1" xmlns="http://www.w3.org/2000/svg" p-id="1506" xmlns:xlink="http://www.w3.org/1999/xlink"><path d="M240.38 488.758c-21.391 0.271-42.788 0.307-64.174-0.020-6.557-0.102-8.172 2.7-7.983 8.506 0.267 8.14 0.375 16.309-0.031 24.441-0.346 6.927 2.793 8.847 9.14 8.526 7.341-0.374 14.715-0.087 22.342-0.087 0 16.169 0 30.95 0 45.833-3.899 0.745-7.18 1.529-10.505 1.989-31.636 4.386-53.489-7.204-59.766-35.059-3.959-17.572-5.487-36.46-3.861-54.373 4.003-44.122 25.531-60.929 75.197-55.52 9.354 1.020 18.575 3.229 29.296 5.142 2.439-10.279 4.039-19.997 7.136-29.213 2.821-8.411-0.084-12.612-7.898-13.742-19.684-2.842-39.513-7.815-59.146-7.248-47.754 1.38-74.656 22.291-86.923 65.211-9.98 34.924-10.172 70.356-0.487 105.431 6.71 24.309 20.534 44.073 44.391 53.839 38.266 15.665 76.718 14.614 114.094-3.637 3.308-1.615 6.767-6.925 6.825-10.572 0.517-33.605 0.223-67.229 0.382-100.839 0.027-5.857-1.551-8.686-8.030-8.607z" p-id="1507"></path><path d="M578.614 422.397c0 18.566 0 37.13 0 56.208-22.495 0-43.761 0-66.75 0 0-27.577 0-54.26 0-81.588-16.096 0-31.132 0-46.283 0 0 73.931 0 147.015 0 220.558 15.589 0 30.358 0 46.364 0 0-4.362 0-8.012 0-11.658 0.002-24.779 0.286-49.561-0.165-74.329-0.139-7.685 2.27-10.015 9.835-9.767 15.598 0.51 31.236 0.554 46.828-0.012 7.983-0.287 10.529 2.085 10.356 10.265-0.538 25.78-0.431 51.587-0.043 77.373 0.043 2.945 3.305 8.25 5.305 8.362 13.456 0.749 26.974 0.389 41.039 0.389 0-74.417 0-147.526 0-222.030-6.969 0-13.333 0-19.699 0-26.787 0.002-26.787 0.002-26.787 26.229z" p-id="1508"></path><path d="M953.085 511.217c-6.361-34.979-29.072-52.396-63.264-48.319-10.546 1.26-20.77 5.21-31.898 8.125 0-24.063 0-48.324 0-74.854-12.813 0-24.297 0.59-35.686-0.179-9.67-0.649-12.765 2.342-12.695 12.362 0.438 63.415 0.131 126.832 0.27 190.247 0.051 22.622-3.235 19.444 20.166 19.661 7.742 0.073 17.275 2.769 16.38-10.494 7.777 3.689 14.235 7.573 21.218 9.845 7.323 2.385 15.095 4.124 22.765 4.581 31.833 1.906 52.003-8.915 59.91-40.452 5.836-23.282 7.127-46.923 2.835-70.524zM906.208 565.975c-1.645 12.975-9.405 18.436-22.565 18.558-2.367 0.020-4.768-0.022-7.101-0.382-18.836-2.913-20.269-4.624-20.269-23.727 0-6.106 0-12.212 0-18.316 0-7.802 0.667-15.673-0.175-23.382-0.962-8.815 2.79-12.831 10.739-15.365 24.255-7.738 37.622-0.096 40.331 25.236 1.314 12.309 0.598 25.057-0.962 37.378z" p-id="1509"></path><path d="M787.145 478.787c0-3.333 0-6.668 0-11.612-13.117 0-25.238 0.33-37.328-0.122-7.481-0.278-10.050 2.227-9.941 9.903 0.396 28.158 0.157 56.327 0.157 84.49-0.002 17.599-1.828 19.788-19.28 22.692-2.327 0.386-4.735 0.459-7.099 0.411-12.372-0.251-18.042-5.514-18.524-17.997-0.403-10.507-0.132-21.038-0.137-31.557-0.009-22.009-0.002-44.021-0.002-67.598-15.007 0-29.142-0.202-43.249 0.305-1.441 0.051-3.904 4.327-3.913 6.652-0.1 35.625-0.473 71.268 0.541 106.868 0.481 17.022 8.478 31.561 25.81 36.499 12.075 3.441 25.443 5.274 37.825 3.952 14.059-1.497 27.655-7.311 41.932-11.388-0.49 7.972 4.822 9.217 11.921 8.39 3.347-0.393 6.833-0.453 10.164 0 9.267 1.266 11.379-2.953 11.301-11.625-0.389-42.755-0.179-85.511-0.179-128.265z" p-id="1510"></path><path d="M431.68 584.161c-17.252 1.417-23.147-5.142-23.267-22.671-0.107-15.604 0.22-31.214-0.139-46.811-0.147-6.467 1.714-9.098 8.576-8.949 8.35 0.175 20.449 2.249 24.133-2.17 4.49-5.376 1.919-16.656 2.383-25.381 0.053-1.014-0.092-2.044 0.010-3.050 0.676-6.778-2.561-8.864-9.030-8.522-8.319 0.439-16.679 0.106-26.45 0.106 0-15.055 0-28.724 0-42.603-15.621 0-29.766 0-45.711 0 0 12.19-0.567 23.362 0.193 34.446 0.534 7.819-2.813 10.59-9.724 12.119-16.092 3.566-16.126 3.78-16.019 19.868 0.113 16.624-2.364 15.712 15.087 15.143 8.784-0.287 10.782 2.886 10.641 11.069-0.363 21.021-0.416 42.079 0.501 63.073 0.948 21.707 12.485 35.206 33.629 40.138 7.486 1.747 15.469 2.192 23.186 1.966 24.5-0.73 24.031-0.973 24.687-25.070 0.273-9.952-1.679-13.611-12.688-12.702z" p-id="1511"></path><path d="M312.736 467.038c-10.795-0.753-21.708-0.762-32.502 0.014-2.556 0.182-6.887 4.442-6.91 6.861-0.418 45.765-0.386 91.537-0.076 137.306 0.016 2.293 3.329 6.455 5.246 6.54 13.454 0.573 26.944 0.302 41.615 0.302 0-49.531 0.105-96.963-0.314-144.387-0.018-2.34-4.461-6.455-7.061-6.637z" p-id="1512"></path><path d="M296.763 401.252c-14.702 0.028-26.022 11.677-25.821 26.57 0.194 14.288 11.472 25.873 25.497 26.188 14.042 0.319 26.384-11.987 26.461-26.379 0.078-14.801-11.423-26.406-26.137-26.379z" p-id="1513"></path></svg>
